# xmcd
#
# Track frame offsets: 
#        150
#        17999
#        38755
#        55667
#        74356
#        89439
#        105932
#        123205
#        144972
#        158950
#        183111
#        199605
#        222114
#        235485
#        249917
#        271521
#        278544
#        300413
#
# Disc length: 4296 seconds
#
# Revision: 4
# Processed by: cddbd v1.4PL0 Copyright (c) Steve Scherf et al.
# Submitted via: ExactAudioCopy v0.90b4
#
DISCID=e310c612
DTITLE=LIPA Peter - V najlepsich rokoch
DYEAR=2001
DGENRE=Rock
TTITLE0=Pani v najlepsich rokoch
TTITLE1=Masicko
TTITLE2=Mokra ulica
TTITLE3=Nad ranom
TTITLE4=Vypalnik
TTITLE5=Domaci kutil
TTITLE6=Nevyznam sa v krizovkach
TTITLE7=Zivot ma neraz prehol cez koleno
TTITLE8=You Might As Well Gone Away
TTITLE9=Raz do tyzdna
TTITLE10=Citovanie
TTITLE11=Away Towards Ocean
TTITLE12=Jedna noc a dost
TTITLE13=Peaceful Lullaby
TTITLE14=Gol Do Satne
TTITLE15=Cumulus
TTITLE16=Prosperita
TTITLE17=Maturantky
EXTD=
EXTT0=
EXTT1=
EXTT2=
EXTT3=
EXTT4=
EXTT5=
EXTT6=
EXTT7=
EXTT8=
EXTT9=
EXTT10=
EXTT11=
EXTT12=
EXTT13=
EXTT14=
EXTT15=
EXTT16=
EXTT17=
PLAYORDER=
